<?xml version="1.0" encoding="utf-8"?>
<!-- Generator: Adobe Illustrator 17.1.0, SVG Export Plug-In . SVG Version: 6.00 Build 0)  -->
<!DOCTYPE svg PUBLIC "-//W3C//DTD SVG 1.1//EN" "http://www.w3.org/Graphics/SVG/1.1/DTD/svg11.dtd">
<svg version="1.1" id="レイヤー_1" xmlns="http://www.w3.org/2000/svg" xmlns:xlink="http://www.w3.org/1999/xlink" x="0px"
	 y="0px" viewBox="0 0 100 105" enable-background="new 0 0 100 105" xml:space="preserve">
<path fill="#D71718" d="M45.723,15.772c0.356-1.228,0.007-2.344-1.035-3.357c-1.045-1.013-2.266-1.324-3.664-0.942
	c-2.148,0.548-3.834,1.545-5.056,2.994c-0.933,1.167-2.039,2.081-3.315,2.744c-0.936,0.551-1.661,1.109-2.183,1.664
	c-0.583,0.554-1.109,0.946-1.567,1.164c-0.76,0.221-1.456,0.606-2.097,1.164c-1.279,0.83-2.587,1.718-3.924,2.661
	c-0.41,0.388-0.789,0.58-1.135,0.577c-0.58,0.054-1.394,0.385-2.44,1c-0.872,0.154-1.773,0.407-2.706,0.734
	c-2.443,0.712-3.812,1.209-4.1,1.488c-1.048,0.885-1.686,1.859-1.92,2.92c-0.234,1.007-0.09,1.898,0.433,2.683
	c0.753,1.231,1.885,1.853,3.395,1.859c1.279,0.01,3.167-0.568,5.668-1.728c1.394,0.01,2.703,0.183,3.924,0.526
	c-0.013,5.53,0.045,8.601,0.161,9.213c0.17,1.68,0.109,4.136-0.186,7.373c-0.006,2.738,0.08,4.581,0.253,5.533
	c0.057,0.221,0.086,0.638,0.083,1.253c-0.176,1.676,0.173,3.215,1.042,4.613c0.35,0.676,0.753,1.068,1.218,1.177
	c0.58,0.064,1.218-0.186,1.92-0.741c1.571-3.398,3.084-5.402,4.536-6.008c0.699-0.667,1.051-1.026,1.051-1.08
	c0.058-0.17-0.057-0.365-0.349-0.59c-0.757-0.676-1.279-1.183-1.571-1.516c-1.039-1.013-1.766-1.657-2.171-1.939
	c0.177-1.061,0.177-2.315,0.007-3.77c-0.061-0.837-0.026-1.844,0.087-3.017c0.176-1.003,0.24-1.785,0.176-2.343
	c0.01-4.414,0.333-7.764,0.974-10.05c0.875-0.83,3.142-1.577,6.803-2.225c0.699-0.167,1.452-0.215,2.266-0.157
	c0.933,0.061,1.773,0.01,2.53-0.151c0.58-0.166,1.449-0.218,2.612-0.157c1.279,0.01,2.966-0.067,5.056-0.225
	c0.349,0.061,0.609,0.17,0.785,0.337c0.055,0.507,0.196,1.064,0.43,1.683c0,0.163,0,0.417,0,0.753
	c-0.407,0.388-0.872,0.776-1.394,1.164c-0.58,0.052-1.308,0.052-2.18-0.013c-0.93-0.057-2.003,0.019-3.222,0.237
	c-0.872,0.218-1.69,0.356-2.443,0.404c-1.106-0.006-1.946,0.212-2.53,0.66c-0.522,0.388-0.724,0.914-0.609,1.587
	c0.054,0.724,0.433,1.257,1.128,1.596c0.869,0.395,1.654,0.568,2.353,0.516c1.394,0.01,2.821,0.042,4.27,0.106
	c2.093-0.494,3.69,0.019,4.793,1.532c0,0.336-0.061,0.757-0.18,1.257c-0.058,0.054-0.173,0.167-0.349,0.334
	c-0.173,0.054-0.263,0.138-0.263,0.25c-0.757,0.218-1.972,0.27-3.658,0.148c-0.93-0.061-2.003,0.048-3.225,0.32
	c-0.872,0.215-1.686,0.356-2.44,0.404c-1.106-0.061-1.946,0.157-2.526,0.657c-0.526,0.388-0.731,0.92-0.615,1.59
	c0.054,0.724,0.433,1.257,1.132,1.597c0.866,0.394,1.654,0.538,2.353,0.426c1.392,0.013,2.818,0.048,4.267,0.112
	c0.757-0.164,1.629-0.189,2.616-0.074c0.231,0.057,0.523,0.09,0.872,0.09c0.523,0.173,1.074,0.51,1.654,1.016
	c-0.054,0-0.083,0.083-0.083,0.25c-0.179,0.391-0.266,0.891-0.266,1.506c-0.35,0.221-0.67,0.471-0.962,0.75
	c-1.802,0.49-3.776,0.731-5.927,0.725c-2.847-0.019-5.2,0.554-7.062,1.718c-0.757,0.554-1.106,1.25-1.048,2.09
	c0.061,0.558,0.436,1.09,1.128,1.596c0.757,0.673,2.18,0.878,4.273,0.609c1.802-0.045,3.513-0.43,5.142-1.144
	c1.394-0.551,2.936-0.709,4.619-0.481c0.872,0.061,1.77,0.067,2.699,0.019c0.176-0.054,0.349-0.054,0.526,0.003
	c0.234,0,0.41,0,0.526,0c0.228-0.054,0.49-0.054,0.782,0.003c0.407-0.054,0.872,0.032,1.391,0.26
	c1.109,0.227,2.154,0.346,3.142,0.349c4.01,0.023,7.38,0.459,10.108,1.314c1.741,0.564,3.276,0.744,4.619,0.526
	c1.103-0.218,1.802-0.914,2.093-2.087c0.234-0.833,0.061-1.699-0.519-2.6c-0.699-1.061-1.92-1.962-3.654-2.699
	c-0.933-0.228-1.834-0.317-2.706-0.263c-2.613,0.321-4.59,0.34-5.921,0.051c-1.574-0.398-2.965-0.436-4.187-0.106
	c-0.583-0.507-1.218-1.039-1.917-1.603c-0.057-0.391-0.055-0.782,0.003-1.173c0.058-0.221,0.234-0.359,0.526-0.417
	c0.699-0.888,1.539-1.276,2.526-1.157c2.847,0.686,4.475,0.92,4.879,0.696c0.696-0.054,1.221-0.08,1.568-0.077
	c0.583,0.058,1.282-0.327,2.097-1.16c0.58-0.722,0.872-1.337,0.872-1.84c-0.173-1.064-0.548-1.789-1.129-2.186
	c-1.103-0.673-2.529-1.013-4.267-1.026c-1.978-0.007-3.312,0.122-4.013,0.401c-0.872,0.215-1.946,0.381-3.222,0.484
	c-0.176-0.167-0.349-0.336-0.526-0.506c0-0.667,0.003-1.311,0.006-1.923c0.696-0.895,1.946-1.359,3.747-1.407
	c0.061,0,0.173,0.029,0.35,0.087c2.847,0.74,4.472,0.971,4.882,0.696c1.74-0.215,2.901-0.545,3.485-0.987
	c0.696-0.833,1.048-1.475,1.048-1.92c-0.176-1.064-0.551-1.821-1.132-2.27c-2.318-1.52-4.937-1.782-7.841-0.795
	c-1.099,0.161-2.237,0.321-3.398,0.484c-0.35-0.336-0.699-0.731-1.048-1.18c0.061-0.167,0.119-0.305,0.176-0.417
	c0-0.225,0-0.446,0-0.667c2.093-1.667,5.379-1.958,9.851-0.872c0.407,0,0.901,0.087,1.481,0.256c3.831,0.747,6.101,0.09,6.803-1.971
	c0.234-0.728,0.086-1.369-0.43-1.933c-1.92-1.683-4.677-2.337-8.281-1.965c-0.699-0.01-1.423-0.039-2.18-0.099
	c-2.44-0.404-4.382-0.468-5.838-0.199c-0.237,0.054-0.439,0.112-0.613,0.167c-0.407-0.394-0.667-0.76-0.782-1.093
	c-0.234-0.5-0.494-0.76-0.786-0.76c-0.75-0.003-2.032,0.494-3.837,1.487c-1.218-0.064-2.436,0.128-3.661,0.567
	c-0.75,0.225-1.625,0.298-2.613,0.241c-0.753-0.061-1.741,0.045-2.962,0.317c-1.92,0.493-3.895,0.509-5.924,0.054
	c-0.237-0.337-0.471-0.731-0.699-1.18c-0.058-0.054-0.176-0.163-0.349-0.334c0.41-0.391,1.077-0.721,2.007-1
	C41.886,21.03,44.095,18.949,45.723,15.772z M14.772,87.238c1.394,0.68,4.299,0.503,8.717-0.539
	c1.045-0.381,2.064-0.994,3.055-1.824c4.187-2.549,6.367-3.905,6.54-4.074c0.234-0.388,0.292-0.837,0.176-1.337
	c-0.231-0.503-0.609-0.869-1.135-1.099c-1.391-0.728-3.51-0.41-6.36,0.971c-0.407,0.224-0.872,0.304-1.395,0.25
	c-0.872,0.048-1.6,0.157-2.18,0.321c-5.232,0.644-8.108,1.83-8.633,3.558c-0.35,0.894-0.407,1.699-0.176,2.43
	C13.435,86.452,13.9,86.901,14.772,87.238z M58.527,21.286c0.353,0.224,0.933,0.141,1.744-0.244
	c0.933-0.052,1.891,0.151,2.879,0.603c0.231,0,0.551,0.057,0.959,0.173c0.404,0.058,0.959,0.032,1.654-0.077
	c0.526-0.052,0.93-0.414,1.221-1.084c0.176-0.334,0.144-0.75-0.09-1.257c-0.167-0.558-0.426-0.923-0.779-1.093
	c-0.346-0.167-0.667-0.449-0.959-0.843c-0.346-0.561-0.923-1.068-1.741-1.516c-0.869-0.394-1.205-1.894-1.439-2.286
	c-0.35-0.673-1.042-1.148-2.09-1.433c-2.44-0.853-4.501-1.228-6.184-1.119c-1.106,0.045-2.045,1.426-2.395,1.923
	c-0.18,0.394-0.147,0.757,0.086,1.093c0.404,0.391,1.016,0.843,1.827,1.35c0.93,0.34,2,1.016,3.219,2.029
	c0.933,0.84,1.337,1.568,1.218,2.183C57.485,20.023,57.777,20.555,58.527,21.286z M18.106,72.008
	c2.324-0.375,4.735-0.779,7.235-1.215c1.398-0.33,2.443-0.881,3.139-1.657c0.583-0.558,0.728-1.283,0.439-2.174
	c-0.231-0.676-1.218-1.212-2.959-1.615c-1.456-0.561-2.815-0.651-4.097-0.266c-0.869,0.16-1.946,0.042-3.225-0.359
	c-1.629-0.507-3.366-0.096-5.228,1.234c-0.936,0.724-1.398,1.783-1.398,3.174c0.051,1.173,0.692,2.074,1.911,2.689
	C15.144,72.386,16.535,72.45,18.106,72.008z M83.542,81.57c-1.564-0.343-3.135-0.66-4.703-0.945
	c-0.699-0.003-1.308-0.148-1.827-0.433c-0.58-0.388-1.283-0.67-2.09-0.846c-0.583-0.058-1.196-0.256-1.83-0.596
	c-0.756-0.395-1.369-0.673-1.83-0.843c-0.753-0.231-1.333-0.567-1.741-1.016c-0.699-0.398-1.391-0.818-2.093-1.273
	c-0.407-0.391-0.955-0.782-1.651-1.176c-0.404-0.228-0.901-0.564-1.481-1.013c-1.391-1.35-3.042-2.251-4.962-2.706
	c-0.583-0.173-1.164-0.119-1.741,0.157c-0.353,0.054-0.558,0.247-0.616,0.58c-0.057,0.224-0.029,0.535,0.087,0.926
	c0.231,0.67,1.744,1.821,4.526,3.456c0.584,0.394,0.987,0.789,1.218,1.18c1.276,1.904,3.658,3.789,7.142,5.652
	c1.449,0.901,2.433,1.577,2.959,2.023c0.522,0.398,1.013,0.676,1.481,0.846c2.26,1.189,3.622,1.949,4.091,2.289
	c1.221,1.006,2.786,1.436,4.706,1.279c1.568-0.051,2.699-0.353,3.398-0.907c0.58-0.384,0.93-1.138,1.051-2.254
	c0.176-1.17-0.087-2.177-0.779-3.02C86.161,82.032,85.055,81.58,83.542,81.57z M87.376,67.433c-0.869-1.071-2.119-1.853-3.747-2.369
	c-1.802-0.51-3.658-0.632-5.575-0.365c-1.103,0.167-2.728-0.093-4.879-0.773c-4.183-0.862-9.819-1.311-16.904-1.35
	c-0.234,0-0.436,0.051-0.609,0.163c-0.58-0.394-1.106-0.728-1.571-1.013c-0.17-0.17-0.32-0.279-0.433-0.336
	c0.173-1.228-0.054-2.18-0.68-2.853c-0.568-0.67-1.472-0.955-2.719-0.85c-0.91,0.052-1.676,0.577-2.298,1.581
	c-0.401,0.667-0.603,1.446-0.603,2.34c-0.58,0.558-1.048,0.946-1.394,1.17c-5.578-0.423-10.172,0.279-13.772,2.106
	c-0.933,0.555-1.343,1.276-1.224,2.167c0.17,0.837,0.75,1.372,1.737,1.6c1.394,0.343,2.613,0.458,3.661,0.356
	c2.151-0.324,5.636-0.443,10.457-0.362c0.523,0.334,0.901,1.093,1.122,2.263c0,0.394-0.054,0.757-0.173,1.09
	c0,0.667-0.057,1.34-0.17,2.013c-0.003,0.667-0.003,1.369-0.003,2.093c-0.202,0.225-0.24,0.641-0.128,1.253c0,0.391,0,0.779,0,1.174
	c-0.003,0.561-0.003,0.923-0.003,1.09c0,0.224-0.029,0.423-0.087,0.59c-0.237,1.67-1.026,7.072-0.798,9.034
	c0.398,1.565,1.023,2.545,1.879,2.943c0.686,0.225,3.767,1.353,4.793,1.077c1.676-0.433,1.475-1.68,1.475-7.332
	c0-1.872-0.664-4.267-1.186-6.447c0-0.221,0-0.443,0-0.673c0-0.221,0-0.497,0-0.837c0-0.391,0-0.753,0-1.087
	c0.007-0.728,0.007-1.283,0.007-1.677c0-0.333,0-0.728,0.003-1.173c0.054-0.221,0.054-0.612,0-1.17
	c-0.058-0.336-0.026-0.673,0.09-1.006c0-0.225,0.587-0.779,1.305-1.401c0.721-0.618,1.099-1.042,1.68-1.375
	c1.456-0.16,0.971-1.087,2.25-0.798c1.452,0.231,2.818,0.295,4.094,0.186c1.106-0.045,2.209,0.125,3.312,0.519
	c0.76,0.343,2.327,0.545,4.706,0.616c2.44,0.067,5.139,0.894,8.101,2.468c2.093,0.907,4.122,1.084,6.101,0.535
	c1.452-0.381,2.356-1.132,2.706-2.247C88.244,69.308,88.071,68.327,87.376,67.433z M36.135,78.897c0.757,0,1.568-0.33,2.443-1
	c0.231-0.218,0.609-0.41,1.132-0.58c0.76-0.218,1.484-0.603,2.183-1.154c1.045-0.724,1.776-1.472,2.183-2.257
	c0.407-0.728,0.468-1.388,0.179-2.013c-0.41-0.558-1.077-0.814-2.007-0.76c-1.394-0.006-3.488,1.129-6.28,3.402
	c-0.583,0.5-1.106,1.167-1.571,2.003c-0.237,0.724-0.205,1.254,0.083,1.593C34.712,78.525,35.267,78.775,36.135,78.897z
	 M99.417,75.88l0.324-1.346l-0.013,0.058l-0.023-4.78c-0.003,0-0.34-1.318-0.34-1.318l-0.118-0.384
	c0.225-0.641,0.51-1.446,0.51-2.911l-0.369-5.03c0,0.038,0.256-2.039,0.256-2.039c0.167-0.683,0.356-1.452,0.356-2.907l-0.484-4.783
	l-0.013-4.789c0-1.488-0.24-2.305-0.439-2.969c-0.163-0.558-0.295-0.997-0.295-1.988l-0.032-4.822c0-0.856,0.167-1.205,0.42-1.74
	c0.09-0.186,0.119-0.369,0.119-0.551c0-0.346-0.119-0.686-0.247-1.042c-0.16-0.455-0.346-0.971-0.346-1.632
	c0-1.676-0.532-2.609-0.917-3.292c-0.256-0.449-0.263-0.5-0.269-1.167c0.048-0.154-1.279-2.558-1.279-2.558v-0.074
	c0-1.641-0.192-3.231-0.571-4.735l-0.263-1.42c-0.176-1.129-0.362-2.311-0.971-3.424c-0.625-1.135-1.631-1.904-2.439-2.517
	c0,0-1.145-0.962-1.145-0.965c0-0.007-0.359-0.391-0.359-0.391c-0.93-0.99-1.885-2.016-3.177-2.811
	c0.061,0.042-1.16-0.914-1.16-0.914c0.022,0.019-0.693-1.039-0.693-1.039c-0.465-0.811-0.984-1.731-1.955-2.01
	c-1.587-0.459-2.991-0.667-4.167-0.619l-1.193,0.032c-1.619,0-2.545,0.584-3.158,0.971c-0.349,0.093-0.314-2.641-2.632-2.648
	l-4.616-0.032l-4.465-0.311c-0.875,0-1.196-0.128-1.722-0.336c-0.663-0.266-1.567-0.622-3.164-0.622L53.549,0L51.09,0.125
	L48.929,0.24l-4.648,0.064c-1.635,0-2.555,0.426-3.235,0.737c-0.51,0.237-0.795,0.369-1.548,0.369l-4.623-0.189l-4.757-0.481
	c-0.968-0.007-1.347-0.116-1.869-0.266c-1.141-0.33-3.113,2.456-3.132,2.485c-0.561,0.83,0.147,1.74,1.103,2.276l0.08,0.042
	l0.446,0.125c0.647,0.186,1.452,0.42,2.92,0.42l4.725,0.478l4.703,0.196c1.68,0,2.606-0.423,3.276-0.741
	c0.519-0.234,0.798-0.365,1.552-0.365l4.693-0.067l4.603-0.24l4.773,0.026c0.359,0,9.666,2.157,9.666,2.157l6.261,3.036
	c0.981,0.003,2.016-0.308,2.85-0.561l1.08-0.272l1.321-0.035c1.019-0.039,4.401,1.074,5.418,1.802
	c0.99,0.619,2.27,1.657,3.007,2.446l0.423,0.455c0,0,1.972,1.769,2.116,2.096l0.231,0.494c0.132,0.237,0.093,0.728,0.054,1.209
	c0,0,0.949,4.283,1.35,4.719c0.423,0.465,0.76,0.833,0.76,1.394l2.148,1.92c-0.006,1.75,0.529,2.683,0.914,3.366
	c0.106,0.186,0.09,0.365,0.035,0.756l-0.067,0.888l0.09,1.007l-0.013,0.667l-0.353,0.5c-0.43,0.523-0.994,1.244-1.039,2.408
	l-1.612,4.844v0.087c0,1.491,0.244,2.311,0.439,2.972l0.42,0.798c0.26,0.41,0.532,0.833,0.532,1.372l0.019,4.841l-0.289,5.001
	c0,0.032-0.26,2.113-0.26,2.113c-0.167,0.68-0.356,1.452-0.356,2.907l1.154,4.809c-0.013,0.75-0.144,1.122-0.327,1.635
	c-0.192,0.555,0.147,1.029,0.478,1.484c0.314,0.429,0.638,0.875,0.638,1.452l0.022,4.786c0,1.5,0.33,2.311,0.599,2.962
	c0.202,0.503,0.34,0.833,0.362,1.645l-0.221,1.683c-0.173,0.587-0.385,1.318-0.385,2.622c0,0.635-0.317,1.35-0.654,2.106
	l-0.693,1.824c-0.019,0.051-0.173,1.933-0.173,1.933c0.007,0.827,0.01,1.68-0.362,2.324c0,0.003-0.699,1.356-0.699,1.356
	c-0.132,0.272-0.555,0.426-1.004,0.584l-1.295,0.689c-0.459,0.465-1.122,0.75-1.885,1.08l-1.558,0.753l-1.314,0.872
	c-0.019,0.013-0.805,1.045-0.805,1.045c-0.067,0.132-0.208,0.41-0.275,0.439l-0.186,0.074l-0.109,0.144
	c-0.619,0.811-0.41,1.458-0.228,1.776c0.336,0.593,1.09,0.981,2.003,1.036l0.256,0.019l0.151-0.096l1.879-1.173l1.093-0.728
	c1.375-0.808,2.642-1.587,3.799-2.76c0.917-0.926,1.433-1.994,1.888-2.94l0.6-1.164c0.827-1.433,1.5-2.674,1.943-4.312l0.542-1.394
	c0.41-0.933,0.936-2.122,0.936-3.488l0.247-1.651c0.186-0.616,0.401-1.375,0.362-2.757c-0.042-1.433-0.375-2.25-0.622-2.85
	C99.269,76.239,99.323,76.101,99.417,75.88z M79.442,99.103L79.269,99l-3.552-0.109c-0.542,0-1.003-0.269-1.446-0.529
	c-0.507-0.298-5.367-0.789-5.367-0.789c-0.612-0.484-1.535-1.218-2.856-1.218L61.473,95.9c-1.882-0.003-3.049,0.618-3.77,1.083
	c-0.5,0.327-8.191,0.532-8.845,0.84c-0.49,0.227-0.737,0.343-1.427,0.343l-5.969,0.064l-0.395,0.09
	c-0.641-0.404-1.224-0.314-1.843-0.228c0,0-3.452,0.734-3.882,1.193l-0.33,0.317c-0.327,0.26-2.299-0.289-2.491-0.548
	c-0.327-0.439-0.606-0.817-1.08-0.933c-0.622-0.151-1.394-0.343-2.798-0.343l-1.674-0.224c-0.616-0.167-7.178,0.115-7.178,0.115
	c0.09-0.006-1.295,0.09-1.295,0.09c-0.757,0.08-1.353,0.147-2.113-0.074c-0.856-0.247-3.709-0.282-3.965-0.439l-0.311-0.192
	c-1.093-0.67-2.218-1.362-2.972-2.157c-0.5-0.526-3.577-5.075-3.648-5.357c0.08-0.27,0.542-1.875,0.542-1.875l-0.154-1.872
	c-0.003-0.01-0.006-0.019-0.006-0.032c0-0.157,1.375-1.565,1.375-2.135c0,0,0.606-3.577,0.606-5.039
	c0-1.231-2.603-3.193-2.603-3.193c-0.231-0.523-0.385-0.872-0.385-1.725c0-0.317,0.253-0.51,0.661-0.798l0.846-0.878
	c0.27-0.689,0.609-1.548,0.609-3.119c0-1.472-0.256-2.282-0.465-2.93c-0.167-0.529-0.301-0.949-0.301-1.885l0.346-4.921
	l-1.061-9.803c0.013-0.824,0.167-1.218,0.378-1.763c0.272-0.699,0.609-1.555,0.609-3.122c0-1.619-0.41-2.532-0.705-3.206
	c-0.247-0.545-0.407-0.907-0.407-1.789v-4.664c0,0,0.555-3.395,0.555-4.78l-0.51-4.732l-0.301-4.312
	c0,0.032,0.289-4.401,0.359-5.485c0.417-0.417,1.436-0.58,2.215-0.692l5.418-5.001c0.147-0.436,0.42-1.25,0.564-1.423
	c0.359-0.196,2.943-1.863,3.116-2.209c0.365-0.122,1.196-0.404,1.196-0.404c0.788-0.292,1.513-0.561,2.106-0.561l3.074-0.029
	l0.205-0.253c0.083-0.102,0.728-0.914,0.728-1.75c0-0.131-0.016-0.26-0.048-0.388c-0.119-0.433-0.436-0.782-0.917-1.007
	c-1.548-0.721-3.046-0.25-3.244-0.18c-1.241,0.038-5.889,1.423-5.889,1.423c-1,0.132-2.282,0.301-3.411,0.965
	c-1.212,0.708-2.93,4.138-2.93,4.138C7.473,8.303,6.924,8.53,6.485,8.72c-1.032,0.436-2.308,0.974-3.036,2.234
	c-0.654,1.145-1.478,4.937-1.478,4.937C1.51,17.603,1.26,19.379,1.26,21.004l-0.696,9.031C0.554,30.144,0,33.539,0,34.923v0.086
	c0,0,1.513,4.517,1.532,4.581c0.029,1.513,0.404,2.42,0.692,3.068c0.244,0.545,0.25,3.1,0.039,3.645
	c-0.273,0.692-0.609,1.555-0.609,3.125L1.221,63.846c0,0.035-0.519,2.138-0.519,2.462c0,0.132,0.016,0.27,0.061,0.414
	c0.167,0.529-0.086,4.972,0,5.334l0.244,1.612c0,1.577,1.077,4.014,1.077,4.866L1.827,80.65c-0.166,0.686-0.353,1.458-0.353,2.92
	c0,1.282,0.398,2.395,0.744,3.373l0.638,2.731c0.128,1.077,0.266,2.212,0.872,3.315l0.577,1.16c0.523,1.093,1.061,2.228,1.955,3.17
	c1.093,1.154,4.049,2.969,4.049,2.969c1.193,0.731,6.008,1.369,6.578,1.728c0.904,0.574,1.927,1.218,3.151,1.218l4.126,0.337
	c0.064,0.003,2.843,0.093,3.283-0.17c0.388-0.234,3.09-0.247,3.09-0.247c0.628,0.154,5.642-0.462,6.306-0.994
	c0.497-0.398,0.603-0.474,1.013-0.474c0.289,0,0.936,0.59,1.25,0.872l0.715,0.587c0.715,0.443,1.686,1.045,3.468,1.045l6.072,0.362
	c0.41,0.138,3.889-0.192,4.382,0.058c0.593,0.298,5.27-0.43,5.661-0.911l0.269-0.253c0.391-0.256,1.356-0.542,2.058-0.542
	c0,0,5.677,0.593,6.184,0.836c0.612,0.292,3.093-0.275,3.093-0.275c1.581,0,2.469-0.356,3.113-0.616
	c0.507-0.205,4.427-0.241,4.427-0.241c1.016-0.135,1.718-0.942,1.718-1.526l0.01-0.26C80.301,100.324,80.326,99.638,79.442,99.103z"
	/>
</svg>
